<svg xmlns="http://www.w3.org/2000/svg" width="17.53" height="29.973" viewBox="0 0 17.53 29.973"><defs><style>.a{fill:#9b9b9b;}.b{fill:none;stroke:#9b9b9b;stroke-linecap:round;}</style></defs><g transform="translate(0.129 -0.862)"><circle class="a" cx="8.559" cy="8.559" r="8.559" transform="translate(-0.129 13.717)"/><path class="b" d="M5.283,7.89a22.205,22.205,0,0,1-.512-6.455A10.081,10.081,0,0,1,6.845-3.151" transform="translate(-0.15 5.305)"/><path class="a" d="M8.459.142A.247.247,0,0,0,8.021.124,2.688,2.688,0,0,1,5.7,1.4H4.46A2.891,2.891,0,0,0,1.486,4.2a2.716,2.716,0,0,0,.023.3A7.737,7.737,0,0,1,5.947,3.266a.234.234,0,1,1,0,.466C2.053,3.732.4,5.978.036,6.822a.457.457,0,0,0,.271.606.508.508,0,0,0,.647-.252A3.864,3.864,0,0,1,2.068,5.856,3.043,3.043,0,0,0,4.777,6.981,4.538,4.538,0,0,0,8.921,2.25,5.035,5.035,0,0,0,8.459.142Z" transform="matrix(0.391, 0.921, -0.921, 0.391, 13.916, 0.862)"/></g></svg>