<svg xmlns="http://www.w3.org/2000/svg" width="35.119" height="34.783" viewBox="0 0 35.119 34.783"><defs><style>.a{fill:#9b9b9b;}.b{fill:#f88;}.c{fill:#fff;font-size:10px;font-family:SegoeUI-Bold, Segoe UI;font-weight:700;}</style></defs><g transform="translate(0 0.427)"><g transform="translate(0 10.26)"><path class="a" d="M11.828,12.533l1.191-7.906h-6.2L4.235,11.4a2.376,2.376,0,0,0-.122.753c0,1.663,1.732,3.012,3.872,3.012,1.973,0,3.6-1.151,3.843-2.635Zm5.838,2.635c2.138,0,3.872-1.349,3.872-3.012,0-.062,0-.123-.008-.182l-.766-7.347h-6.2L13.8,11.969c0,.062-.006.123-.006.188,0,1.663,1.733,3.012,3.872,3.012Zm7.53,1.575V22.7H10.137V16.753a6.336,6.336,0,0,1-2.152.373,6.209,6.209,0,0,1-.86-.074v9.561A2.113,2.113,0,0,0,9.23,28.722H26.1a2.115,2.115,0,0,0,2.108-2.108v-9.56a6.47,6.47,0,0,1-.86.074A6.258,6.258,0,0,1,25.2,16.744Zm5.9-5.34L28.508,4.627H22.314l1.19,7.894c.232,1.491,1.863,2.647,3.845,2.647,2.138,0,3.872-1.349,3.872-3.012a2.418,2.418,0,0,0-.12-.753Z" transform="translate(-4.113 -4.627)"/></g><g transform="translate(19.443 0)"><rect class="b" width="16" height="15" rx="2" transform="translate(-0.324 0.573)"/><text class="c" transform="translate(0.676 10.573)"><tspan x="0" y="0">7+</tspan></text></g></g></svg>