<svg xmlns="http://www.w3.org/2000/svg" width="25.957" height="25.958" viewBox="0 0 25.957 25.958"><defs><style>.a,.d{fill:none;}.a,.b{stroke:#9b9b9b;stroke-width:2px;}.a{stroke-linecap:round;stroke-linejoin:round;}.b{fill:#9b9b9b;}.c{stroke:none;}</style></defs><g transform="translate(1.017 1.017)"><path class="a" d="M23.515,11.105A10.949,10.949,0,0,1,22.34,16.07a11.1,11.1,0,0,1-9.929,6.14,10.947,10.947,0,0,1-4.964-1.176L0,23.517,2.482,16.07a10.949,10.949,0,0,1-1.176-4.965,11.105,11.105,0,0,1,6.14-9.929A10.947,10.947,0,0,1,12.411,0h.653A11.079,11.079,0,0,1,23.515,10.452Z" transform="matrix(1, -0.017, 0.017, 1, 0, 0.41)"/><g class="b" transform="matrix(0.899, 0.438, -0.438, 0.899, 7.09, 8.322)"><ellipse class="c" cx="2.165" cy="2.165" rx="2.165" ry="2.165"/><ellipse class="d" cx="2.165" cy="2.165" rx="1.165" ry="1.165"/></g><g class="b" transform="matrix(0.899, 0.438, -0.438, 0.899, 11.93, 8.274)"><ellipse class="c" cx="2.165" cy="2.165" rx="2.165" ry="2.165"/><ellipse class="d" cx="2.165" cy="2.165" rx="1.165" ry="1.165"/></g><g class="b" transform="matrix(0.899, 0.438, -0.438, 0.899, 16.769, 8.226)"><ellipse class="c" cx="2.165" cy="2.165" rx="2.165" ry="2.165"/><ellipse class="d" cx="2.165" cy="2.165" rx="1.165" ry="1.165"/></g></g></svg>