<svg xmlns="http://www.w3.org/2000/svg" width="22.531" height="38.522" viewBox="0 0 22.531 38.522"><defs><style>.a{fill:red;}.b{fill:none;stroke:#707070;stroke-linecap:round;}.c{fill:#6ae671;}</style></defs><g transform="translate(0.129 -0.862)"><circle class="a" cx="11" cy="11" r="11" transform="translate(-0.129 17.384)"/><path class="b" d="M5.455,11.039S4.318,6.086,4.8,2.743A12.957,12.957,0,0,1,7.463-3.151" transform="translate(1.179 5.673)"/><path class="c" d="M10.872.182A.318.318,0,0,0,10.309.16,3.455,3.455,0,0,1,7.325,1.8H5.732A3.716,3.716,0,0,0,1.91,5.4a3.49,3.49,0,0,0,.03.384A9.945,9.945,0,0,1,7.643,4.2a.3.3,0,1,1,0,.6c-5,0-7.127,2.887-7.6,3.972A.588.588,0,0,0,.4,9.548a.653.653,0,0,0,.832-.324,4.966,4.966,0,0,1,1.431-1.7A3.911,3.911,0,0,0,6.14,8.973a5.832,5.832,0,0,0,5.325-6.081A6.471,6.471,0,0,0,10.872.182Z" transform="matrix(0.391, 0.921, -0.921, 0.391, 17.922, 0.862)"/></g></svg>