<svg xmlns="http://www.w3.org/2000/svg" width="31.499" height="27.949" viewBox="0 0 31.499 27.949"><defs><style>.a{fill:none;stroke:#676767;stroke-linejoin:round;stroke-width:2.25px;}</style></defs><g transform="translate(-2.25 -3.375)"><path class="a" d="M4.809,13.5a1.433,1.433,0,0,0-1.434,1.42,1.256,1.256,0,0,0,.056.387L7.066,28.125A2.845,2.845,0,0,0,9.815,30.2H26.184a2.874,2.874,0,0,0,2.763-2.074l3.635-12.818.042-.387A1.433,1.433,0,0,0,31.19,13.5ZM18.4,24.755A2.958,2.958,0,1,1,21.375,21.8,2.958,2.958,0,0,1,18.4,24.755Z"/><path class="a" d="M11.25,13.5,18,4.5l6.75,9"/></g></svg>