<svg xmlns="http://www.w3.org/2000/svg" width="21.997" height="21.997" viewBox="0 0 21.997 21.997"><defs><style>.a{fill:#0052b4;}.b{fill:#ff9811;}.c{fill:#d80027;}</style></defs><path class="a" d="M22,160.13a10.974,10.974,0,0,0-.684-3.826L11,155.826.684,156.3a11.039,11.039,0,0,0,0,7.651L11,164.434l10.315-.478A10.974,10.974,0,0,0,22,160.13Z" transform="translate(0 -149.131)"/><path class="b" d="M26.238,352.216a11,11,0,0,0,10.315-7.173H15.923A11,11,0,0,0,26.238,352.216Z" transform="translate(-15.239 -330.219)"/><path class="c" d="M15.923,7.173H36.552a11,11,0,0,0-20.629,0Z" transform="translate(-15.239)"/></svg>